<?xml version="1.0" encoding="UTF-8" standalone="no"?>
<!DOCTYPE svg PUBLIC "-//W3C//DTD SVG 1.1//EN"
 "http://www.w3.org/Graphics/SVG/1.1/DTD/svg11.dtd">
<!-- Generated by graphviz version 10.0.1 (0)
 -->
<!-- Pages: 1 -->
<svg width="250pt" height="140pt"
 viewBox="0.00 0.00 250.45 140.00" xmlns="http://www.w3.org/2000/svg" xmlns:xlink="http://www.w3.org/1999/xlink">
<g id="graph0" class="graph" transform="scale(1 1) rotate(0) translate(4 136)">
<!-- x₁ -->
<g id="node1" class="node">
<title>x₁</title>
<ellipse fill="none" stroke="black" cx="29.11" cy="-72" rx="29.11" ry="18"/>
<text text-anchor="middle" x="29.11" y="-67.33" font-family="Times,serif" font-size="14.00">¬x₁</text>
</g>
<!-- x₄ -->
<g id="node2" class="node">
<title>x₄</title>
<ellipse fill="lightgrey" stroke="black" cx="123.33" cy="-114" rx="27" ry="18"/>
<text text-anchor="middle" x="123.33" y="-109.33" font-family="Times,serif" font-size="14.00">x₄</text>
</g>
<!-- x₁&#45;&gt;x₄ -->
<g id="edge1" class="edge">
<title>x₁&#45;&gt;x₄</title>
<path fill="none" stroke="black" d="M52.91,-82.38C64.13,-87.49 77.85,-93.74 90.12,-99.33"/>
<polygon fill="black" stroke="black" points="88.51,-102.44 99.06,-103.4 91.41,-96.07 88.51,-102.44"/>
</g>
<!-- x₈ -->
<g id="node3" class="node">
<title>x₈</title>
<ellipse fill="lightgrey" stroke="black" cx="123.33" cy="-22" rx="29.11" ry="18"/>
<text text-anchor="middle" x="123.33" y="-17.32" font-family="Times,serif" font-size="14.00">¬x₈</text>
</g>
<!-- x₁&#45;&gt;x₈ -->
<g id="edge3" class="edge">
<title>x₁&#45;&gt;x₈</title>
<path fill="none" stroke="black" d="M51.5,-60.4C63.17,-54.08 77.85,-46.12 90.81,-39.09"/>
<polygon fill="black" stroke="black" points="92.29,-42.27 99.41,-34.43 88.95,-36.12 92.29,-42.27"/>
</g>
<!-- x₁₂ -->
<g id="node4" class="node">
<title>x₁₂</title>
<ellipse fill="lightgrey" stroke="black" cx="215.45" cy="-45" rx="27" ry="18"/>
<text text-anchor="middle" x="215.45" y="-40.33" font-family="Times,serif" font-size="14.00">x₁₂</text>
</g>
<!-- x₁&#45;&gt;x₁₂ -->
<g id="edge4" class="edge">
<title>x₁&#45;&gt;x₁₂</title>
<path fill="none" stroke="black" d="M57.71,-67.96C89.56,-63.29 142.09,-55.6 177.46,-50.42"/>
<polygon fill="black" stroke="black" points="177.86,-53.9 187.25,-48.98 176.85,-46.97 177.86,-53.9"/>
</g>
<!-- x₈&#45;&gt;x₁₂ -->
<g id="edge5" class="edge">
<title>x₈&#45;&gt;x₁₂</title>
<path fill="none" stroke="black" d="M150.88,-28.78C159.59,-31 169.42,-33.51 178.7,-35.88"/>
<polygon fill="black" stroke="black" points="177.61,-39.21 188.16,-38.29 179.34,-32.43 177.61,-39.21"/>
</g>
<!-- x₃ -->
<g id="node5" class="node">
<title>x₃</title>
<ellipse fill="none" stroke="black" cx="29.11" cy="-18" rx="27" ry="18"/>
<text text-anchor="middle" x="29.11" y="-13.32" font-family="Times,serif" font-size="14.00">x₃</text>
</g>
<!-- x₃&#45;&gt;x₈ -->
<g id="edge2" class="edge">
<title>x₃&#45;&gt;x₈</title>
<path fill="none" stroke="black" d="M56.29,-19.14C64.44,-19.49 73.61,-19.89 82.47,-20.27"/>
<polygon fill="black" stroke="black" points="82.17,-23.76 92.31,-20.7 82.47,-16.77 82.17,-23.76"/>
</g>
</g>
</svg>
