<?xml version="1.0" encoding="UTF-8" standalone="no"?>
<!DOCTYPE svg PUBLIC "-//W3C//DTD SVG 1.1//EN"
 "http://www.w3.org/Graphics/SVG/1.1/DTD/svg11.dtd">
<!-- Generated by graphviz version 10.0.1 (0)
 -->
<!-- Pages: 1 -->
<svg width="255pt" height="324pt"
 viewBox="0.00 0.00 254.67 324.00" xmlns="http://www.w3.org/2000/svg" xmlns:xlink="http://www.w3.org/1999/xlink">
<g id="graph0" class="graph" transform="scale(1 1) rotate(0) translate(4 320)">
<!-- x₁ -->
<g id="node1" class="node">
<title>x₁</title>
<ellipse fill="none" stroke="black" cx="29.11" cy="-198" rx="29.11" ry="18"/>
<text text-anchor="middle" x="29.11" y="-193.32" font-family="Times,serif" font-size="14.00">¬x₁</text>
</g>
<!-- x₄ -->
<g id="node3" class="node">
<title>x₄</title>
<ellipse fill="lightgrey" stroke="black" cx="123.33" cy="-244" rx="27" ry="18"/>
<text text-anchor="middle" x="123.33" y="-239.32" font-family="Times,serif" font-size="14.00">x₄</text>
</g>
<!-- x₁&#45;&gt;x₄ -->
<g id="edge1" class="edge">
<title>x₁&#45;&gt;x₄</title>
<path fill="none" stroke="black" d="M52.44,-209.14C64.01,-214.91 78.35,-222.06 91.01,-228.38"/>
<polygon fill="black" stroke="black" points="89.3,-231.43 99.81,-232.77 92.42,-225.17 89.3,-231.43"/>
</g>
<!-- x₈ -->
<g id="node4" class="node">
<title>x₈</title>
<ellipse fill="lightgrey" stroke="black" cx="123.33" cy="-152" rx="29.11" ry="18"/>
<text text-anchor="middle" x="123.33" y="-147.32" font-family="Times,serif" font-size="14.00">¬x₈</text>
</g>
<!-- x₁&#45;&gt;x₈ -->
<g id="edge3" class="edge">
<title>x₁&#45;&gt;x₈</title>
<path fill="none" stroke="black" d="M52.44,-186.86C63.68,-181.26 77.52,-174.35 89.92,-168.17"/>
<polygon fill="black" stroke="black" points="91.15,-171.46 98.54,-163.87 88.03,-165.2 91.15,-171.46"/>
</g>
<!-- x₁₂ -->
<g id="node8" class="node">
<title>x₁₂</title>
<ellipse fill="lightgrey" stroke="black" cx="217.56" cy="-177" rx="27" ry="18"/>
<text text-anchor="middle" x="217.56" y="-172.32" font-family="Times,serif" font-size="14.00">x₁₂</text>
</g>
<!-- x₁&#45;&gt;x₁₂ -->
<g id="edge4" class="edge">
<title>x₁&#45;&gt;x₁₂</title>
<path fill="none" stroke="black" d="M58.02,-194.86C90.24,-191.23 143.37,-185.24 179.15,-181.21"/>
<polygon fill="black" stroke="black" points="179.51,-184.69 189.06,-180.1 178.73,-177.74 179.51,-184.69"/>
</g>
<!-- x₂ -->
<g id="node2" class="node">
<title>x₂</title>
<ellipse fill="none" stroke="black" cx="29.11" cy="-298" rx="29.11" ry="18"/>
<text text-anchor="middle" x="29.11" y="-293.32" font-family="Times,serif" font-size="14.00">¬x₂</text>
</g>
<!-- x₁₁ -->
<g id="node7" class="node">
<title>x₁₁</title>
<ellipse fill="lightgrey" stroke="black" cx="123.33" cy="-298" rx="27" ry="18"/>
<text text-anchor="middle" x="123.33" y="-293.32" font-family="Times,serif" font-size="14.00">x₁₁</text>
</g>
<!-- x₂&#45;&gt;x₁₁ -->
<g id="edge6" class="edge">
<title>x₂&#45;&gt;x₁₁</title>
<path fill="none" stroke="black" d="M58.53,-298C66.76,-298 75.86,-298 84.56,-298"/>
<polygon fill="black" stroke="black" points="84.54,-301.5 94.54,-298 84.54,-294.5 84.54,-301.5"/>
</g>
<!-- x₉f -->
<g id="node6" class="node">
<title>x₉f</title>
<ellipse fill="lightgrey" stroke="black" cx="217.56" cy="-18" rx="29.11" ry="18"/>
<text text-anchor="middle" x="217.56" y="-13.32" font-family="Times,serif" font-size="14.00">¬x₉</text>
</g>
<!-- x₈&#45;&gt;x₉f -->
<g id="edge9" class="edge">
<title>x₈&#45;&gt;x₉f</title>
<path fill="none" stroke="blue" stroke-dasharray="5,2" d="M135.83,-135.3C151.65,-112.31 180.3,-70.68 198.87,-43.71"/>
<polygon fill="blue" stroke="blue" points="201.56,-45.96 204.35,-35.74 195.8,-41.99 201.56,-45.96"/>
</g>
<!-- x₈&#45;&gt;x₁₂ -->
<g id="edge5" class="edge">
<title>x₈&#45;&gt;x₁₂</title>
<path fill="none" stroke="black" d="M150.51,-159.1C160.03,-161.68 170.95,-164.64 181.14,-167.4"/>
<polygon fill="black" stroke="black" points="180.18,-170.77 190.75,-170 182.01,-164.01 180.18,-170.77"/>
</g>
<!-- x₉t -->
<g id="node5" class="node">
<title>x₉t</title>
<ellipse fill="lightgrey" stroke="black" cx="217.56" cy="-108" rx="27" ry="18"/>
<text text-anchor="middle" x="217.56" y="-103.33" font-family="Times,serif" font-size="14.00">x₉</text>
</g>
<!-- x₉t&#45;&gt;x₉f -->
<g id="edge11" class="edge">
<title>x₉t&#45;&gt;x₉f</title>
<path fill="none" stroke="red" stroke-dasharray="5,2" d="M217.56,-78.03C217.56,-67.85 217.56,-57.68 217.56,-47.51"/>
<polygon fill="red" stroke="red" points="214.06,-78 217.56,-88 221.06,-78 214.06,-78"/>
<polygon fill="red" stroke="red" points="221.06,-47.79 217.56,-37.79 214.06,-47.79 221.06,-47.79"/>
</g>
<!-- x₃ -->
<g id="node9" class="node">
<title>x₃</title>
<ellipse fill="none" stroke="black" cx="29.11" cy="-118" rx="27" ry="18"/>
<text text-anchor="middle" x="29.11" y="-113.33" font-family="Times,serif" font-size="14.00">x₃</text>
</g>
<!-- x₃&#45;&gt;x₈ -->
<g id="edge2" class="edge">
<title>x₃&#45;&gt;x₈</title>
<path fill="none" stroke="black" d="M53.38,-126.58C63.65,-130.37 75.95,-134.9 87.29,-139.08"/>
<polygon fill="black" stroke="black" points="85.77,-142.25 96.36,-142.42 88.19,-135.68 85.77,-142.25"/>
</g>
<!-- x₃&#45;&gt;x₉t -->
<g id="edge10" class="edge">
<title>x₃&#45;&gt;x₉t</title>
<path fill="none" stroke="blue" stroke-dasharray="5,2" d="M56.43,-116.59C88.49,-114.87 142.88,-111.95 179.25,-110"/>
<polygon fill="blue" stroke="blue" points="179.06,-113.52 188.86,-109.49 178.69,-106.53 179.06,-113.52"/>
</g>
<!-- x₇ -->
<g id="node10" class="node">
<title>x₇</title>
<ellipse fill="none" stroke="black" cx="29.11" cy="-53" rx="27" ry="18"/>
<text text-anchor="middle" x="29.11" y="-48.33" font-family="Times,serif" font-size="14.00">x₇</text>
</g>
<!-- x₇&#45;&gt;x₉t -->
<g id="edge7" class="edge">
<title>x₇&#45;&gt;x₉t</title>
<path fill="none" stroke="blue" stroke-dasharray="5,2" d="M54.1,-60.08C86.46,-69.62 144.3,-86.69 181.52,-97.67"/>
<polygon fill="blue" stroke="blue" points="180.33,-100.96 190.91,-100.43 182.31,-94.25 180.33,-100.96"/>
</g>
<!-- x₇&#45;&gt;x₉f -->
<g id="edge8" class="edge">
<title>x₇&#45;&gt;x₉f</title>
<path fill="none" stroke="blue" stroke-dasharray="5,2" d="M55.64,-48.21C87.23,-42.28 141.32,-32.12 177.97,-25.24"/>
<polygon fill="blue" stroke="blue" points="178.54,-28.7 187.73,-23.41 177.25,-21.82 178.54,-28.7"/>
</g>
</g>
</svg>
