<?xml version="1.0" encoding="UTF-8" standalone="no"?>
<!DOCTYPE svg PUBLIC "-//W3C//DTD SVG 1.1//EN"
 "http://www.w3.org/Graphics/SVG/1.1/DTD/svg11.dtd">
<!-- Generated by graphviz version 10.0.1 (0)
 -->
<!-- Pages: 1 -->
<svg width="242pt" height="324pt"
 viewBox="0.00 0.00 242.00 324.00" xmlns="http://www.w3.org/2000/svg" xmlns:xlink="http://www.w3.org/1999/xlink">
<g id="graph0" class="graph" transform="scale(1 1) rotate(0) translate(4 320)">
<!-- a -->
<g id="node1" class="node">
<title>a</title>
<ellipse fill="none" stroke="black" cx="27" cy="-198" rx="27" ry="18"/>
<text text-anchor="middle" x="27" y="-193.32" font-family="Times,serif" font-size="14.00">¬a</text>
</g>
<!-- d -->
<g id="node4" class="node">
<title>d</title>
<ellipse fill="lightgrey" stroke="black" cx="117" cy="-244" rx="27" ry="18"/>
<text text-anchor="middle" x="117" y="-239.32" font-family="Times,serif" font-size="14.00">d</text>
</g>
<!-- a&#45;&gt;d -->
<g id="edge1" class="edge">
<title>a&#45;&gt;d</title>
<path fill="none" stroke="black" d="M48.85,-208.9C59.63,-214.53 72.98,-221.51 84.94,-227.77"/>
<polygon fill="black" stroke="black" points="83.16,-230.79 93.65,-232.32 86.41,-224.58 83.16,-230.79"/>
</g>
<!-- f -->
<g id="node6" class="node">
<title>f</title>
<ellipse fill="lightgrey" stroke="black" cx="117" cy="-152" rx="27" ry="18"/>
<text text-anchor="middle" x="117" y="-147.32" font-family="Times,serif" font-size="14.00">¬f</text>
</g>
<!-- a&#45;&gt;f -->
<g id="edge3" class="edge">
<title>a&#45;&gt;f</title>
<path fill="none" stroke="black" d="M48.85,-187.1C59.63,-181.47 72.98,-174.49 84.94,-168.23"/>
<polygon fill="black" stroke="black" points="86.41,-171.42 93.65,-163.68 83.16,-165.21 86.41,-171.42"/>
</g>
<!-- j -->
<g id="node10" class="node">
<title>j</title>
<ellipse fill="lightgrey" stroke="black" cx="207" cy="-177" rx="27" ry="18"/>
<text text-anchor="middle" x="207" y="-172.32" font-family="Times,serif" font-size="14.00">j</text>
</g>
<!-- a&#45;&gt;j -->
<g id="edge4" class="edge">
<title>a&#45;&gt;j</title>
<path fill="none" stroke="black" d="M53.88,-194.95C84.2,-191.37 134.66,-185.42 169.08,-181.36"/>
<polygon fill="black" stroke="black" points="169.06,-184.88 178.58,-180.23 168.24,-177.93 169.06,-184.88"/>
</g>
<!-- b -->
<g id="node2" class="node">
<title>b</title>
</g>
<!-- i -->
<g id="node9" class="node">
<title>i</title>
</g>
<!-- b&#45;&gt;i -->
<g id="edge6" class="edge">
<title>b&#45;&gt;i</title>
</g>
<!-- c -->
<g id="node3" class="node">
<title>c</title>
<ellipse fill="none" stroke="black" cx="27" cy="-118" rx="27" ry="18"/>
<text text-anchor="middle" x="27" y="-113.33" font-family="Times,serif" font-size="14.00">c</text>
</g>
<!-- c&#45;&gt;f -->
<g id="edge2" class="edge">
<title>c&#45;&gt;f</title>
<path fill="none" stroke="black" d="M50.66,-126.76C60.34,-130.49 71.83,-134.93 82.46,-139.04"/>
<polygon fill="black" stroke="black" points="81.11,-142.27 91.7,-142.61 83.63,-135.74 81.11,-142.27"/>
</g>
<!-- gt -->
<g id="node7" class="node">
<title>gt</title>
</g>
<!-- c&#45;&gt;gt -->
<g id="edge10" class="edge">
<title>c&#45;&gt;gt</title>
</g>
<!-- e -->
<g id="node5" class="node">
<title>e</title>
</g>
<!-- e&#45;&gt;gt -->
<g id="edge7" class="edge">
<title>e&#45;&gt;gt</title>
</g>
<!-- gf -->
<g id="node8" class="node">
<title>gf</title>
</g>
<!-- e&#45;&gt;gf -->
<g id="edge8" class="edge">
<title>e&#45;&gt;gf</title>
</g>
<!-- f&#45;&gt;gf -->
<g id="edge9" class="edge">
<title>f&#45;&gt;gf</title>
</g>
<!-- f&#45;&gt;j -->
<g id="edge5" class="edge">
<title>f&#45;&gt;j</title>
<path fill="none" stroke="black" d="M142.05,-158.83C150.9,-161.35 161.12,-164.25 170.75,-166.99"/>
<polygon fill="black" stroke="black" points="169.65,-170.31 180.22,-169.68 171.56,-163.58 169.65,-170.31"/>
</g>
<!-- gt&#45;&gt;gf -->
<g id="edge11" class="edge">
<title>gt&#45;&gt;gf</title>
</g>
</g>
</svg>
