<?xml version="1.0" encoding="UTF-8" standalone="no"?>
<!DOCTYPE svg PUBLIC "-//W3C//DTD SVG 1.1//EN"
 "http://www.w3.org/Graphics/SVG/1.1/DTD/svg11.dtd">
<!-- Generated by graphviz version 10.0.1 (0)
 -->
<!-- Pages: 1 -->
<svg width="242pt" height="194pt"
 viewBox="0.00 0.00 242.00 194.00" xmlns="http://www.w3.org/2000/svg" xmlns:xlink="http://www.w3.org/1999/xlink">
<g id="graph0" class="graph" transform="scale(1 1) rotate(0) translate(4 190)">
<!-- a -->
<g id="node1" class="node">
<title>a</title>
<ellipse fill="none" stroke="black" cx="27" cy="-72" rx="27" ry="18"/>
<text text-anchor="middle" x="27" y="-67.33" font-family="Times,serif" font-size="14.00">¬a</text>
</g>
<!-- d -->
<g id="node3" class="node">
<title>d</title>
<ellipse fill="lightgrey" stroke="black" cx="117" cy="-114" rx="27" ry="18"/>
<text text-anchor="middle" x="117" y="-109.33" font-family="Times,serif" font-size="14.00">d</text>
</g>
<!-- a&#45;&gt;d -->
<g id="edge1" class="edge">
<title>a&#45;&gt;d</title>
<path fill="none" stroke="black" d="M49.75,-82.38C60.2,-87.37 72.91,-93.43 84.39,-98.92"/>
<polygon fill="black" stroke="black" points="82.6,-101.94 93.13,-103.09 85.61,-95.62 82.6,-101.94"/>
</g>
<!-- f -->
<g id="node4" class="node">
<title>f</title>
<ellipse fill="lightgrey" stroke="black" cx="117" cy="-22" rx="27" ry="18"/>
<text text-anchor="middle" x="117" y="-17.32" font-family="Times,serif" font-size="14.00">¬f</text>
</g>
<!-- a&#45;&gt;f -->
<g id="edge3" class="edge">
<title>a&#45;&gt;f</title>
<path fill="none" stroke="black" d="M48.41,-60.4C59.52,-54.09 73.47,-46.16 85.81,-39.15"/>
<polygon fill="black" stroke="black" points="87.42,-42.26 94.38,-34.28 83.96,-36.18 87.42,-42.26"/>
</g>
<!-- j -->
<g id="node6" class="node">
<title>j</title>
<ellipse fill="lightgrey" stroke="black" cx="207" cy="-45" rx="27" ry="18"/>
<text text-anchor="middle" x="207" y="-40.33" font-family="Times,serif" font-size="14.00">j</text>
</g>
<!-- a&#45;&gt;j -->
<g id="edge4" class="edge">
<title>a&#45;&gt;j</title>
<path fill="none" stroke="black" d="M53.5,-68.13C83.82,-63.53 134.64,-55.82 169.21,-50.58"/>
<polygon fill="black" stroke="black" points="169.4,-54.09 178.76,-49.13 168.35,-47.17 169.4,-54.09"/>
</g>
<!-- b -->
<g id="node2" class="node">
<title>b</title>
<ellipse fill="none" stroke="black" cx="27" cy="-168" rx="27" ry="18"/>
<text text-anchor="middle" x="27" y="-163.32" font-family="Times,serif" font-size="14.00">¬b</text>
</g>
<!-- i -->
<g id="node5" class="node">
<title>i</title>
<ellipse fill="lightgrey" stroke="black" cx="117" cy="-168" rx="27" ry="18"/>
<text text-anchor="middle" x="117" y="-163.32" font-family="Times,serif" font-size="14.00">i</text>
</g>
<!-- b&#45;&gt;i -->
<g id="edge6" class="edge">
<title>b&#45;&gt;i</title>
<path fill="none" stroke="black" d="M54.4,-168C61.89,-168 70.18,-168 78.2,-168"/>
<polygon fill="black" stroke="black" points="78.1,-171.5 88.1,-168 78.1,-164.5 78.1,-171.5"/>
</g>
<!-- f&#45;&gt;j -->
<g id="edge5" class="edge">
<title>f&#45;&gt;j</title>
<path fill="none" stroke="black" d="M142.51,-28.41C151.12,-30.66 160.97,-33.23 170.3,-35.67"/>
<polygon fill="black" stroke="black" points="169.29,-39.02 179.85,-38.17 171.06,-32.25 169.29,-39.02"/>
</g>
<!-- c -->
<g id="node7" class="node">
<title>c</title>
<ellipse fill="none" stroke="black" cx="27" cy="-18" rx="27" ry="18"/>
<text text-anchor="middle" x="27" y="-13.32" font-family="Times,serif" font-size="14.00">c</text>
</g>
<!-- c&#45;&gt;f -->
<g id="edge2" class="edge">
<title>c&#45;&gt;f</title>
<path fill="none" stroke="black" d="M54.4,-19.2C61.89,-19.54 70.18,-19.92 78.2,-20.28"/>
<polygon fill="black" stroke="black" points="77.96,-23.77 88.1,-20.73 78.27,-16.78 77.96,-23.77"/>
</g>
</g>
</svg>
