<?xml version="1.0" encoding="UTF-8" standalone="no"?>
<!DOCTYPE svg PUBLIC "-//W3C//DTD SVG 1.1//EN"
 "http://www.w3.org/Graphics/SVG/1.1/DTD/svg11.dtd">
<!-- Generated by graphviz version 10.0.1 (0)
 -->
<!-- Pages: 1 -->
<svg width="277pt" height="418pt"
 viewBox="0.00 0.00 277.00 418.25" xmlns="http://www.w3.org/2000/svg" xmlns:xlink="http://www.w3.org/1999/xlink">
<g id="graph0" class="graph" transform="scale(1 1) rotate(0) translate(4 414.25)">
<!-- x₁t -->
<g id="node1" class="node">
<title>x₁t</title>
</g>
<!-- x₃f -->
<g id="node2" class="node">
<title>x₃f</title>
</g>
<!-- x₂t -->
<g id="node3" class="node">
<title>x₂t</title>
</g>
<!-- x₁ -->
<g id="node4" class="node">
<title>x₁</title>
<ellipse fill="none" stroke="black" cx="43" cy="-375" rx="27" ry="18"/>
<text text-anchor="middle" x="43" y="-370.32" font-family="Times,serif" font-size="14.00">x₁</text>
<text text-anchor="middle" x="11.5" y="-396.95" font-family="Times,serif" font-size="14.00">1</text>
</g>
<!-- x₁&#45;&gt;x₁t -->
<g id="edge1" class="edge">
<title>x₁&#45;&gt;x₁t</title>
<path fill="none" stroke="green" stroke-dasharray="5,2" d="M39.84,-356.76C37.67,-344.93 34.74,-328.95 32.23,-315.25"/>
<polygon fill="green" stroke="green" points="35.67,-314.65 30.43,-305.44 28.79,-315.91 35.67,-314.65"/>
</g>
<!-- x₃ -->
<g id="node5" class="node">
<title>x₃</title>
<ellipse fill="none" stroke="black" cx="99" cy="-285.75" rx="27" ry="18"/>
<text text-anchor="middle" x="99" y="-281.07" font-family="Times,serif" font-size="14.00">x₃</text>
<text text-anchor="middle" x="67.5" y="-307.7" font-family="Times,serif" font-size="14.00">2</text>
</g>
<!-- x₁&#45;&gt;x₃ -->
<g id="edge2" class="edge">
<title>x₁&#45;&gt;x₃</title>
<path fill="none" stroke="red" d="M53.27,-358C61.48,-345.21 73.14,-327.03 82.64,-312.24"/>
<polygon fill="red" stroke="red" points="85.52,-314.23 87.98,-303.93 79.63,-310.45 85.52,-314.23"/>
<text text-anchor="middle" x="98.75" y="-325.7" font-family="Times,serif" font-size="14.00">¬x₁,x₄</text>
</g>
<!-- x₃&#45;&gt;x₃f -->
<g id="edge4" class="edge">
<title>x₃&#45;&gt;x₃f</title>
<path fill="none" stroke="red" stroke-dasharray="5,2" d="M112.73,-270.15C117.94,-264.13 123.66,-256.9 128,-249.75 132.63,-242.11 136.74,-233.32 140.12,-225.16"/>
<polygon fill="red" stroke="red" points="143.33,-226.58 143.71,-215.99 136.81,-224.03 143.33,-226.58"/>
</g>
<!-- x₂ -->
<g id="node6" class="node">
<title>x₂</title>
<ellipse fill="none" stroke="black" cx="51" cy="-196.5" rx="27" ry="18"/>
<text text-anchor="middle" x="51" y="-191.82" font-family="Times,serif" font-size="14.00">x₂</text>
<text text-anchor="middle" x="19.5" y="-218.45" font-family="Times,serif" font-size="14.00">3</text>
</g>
<!-- x₃&#45;&gt;x₂ -->
<g id="edge3" class="edge">
<title>x₃&#45;&gt;x₂</title>
<path fill="none" stroke="green" d="M80.84,-271.96C73.68,-266.01 66.04,-258.34 61.25,-249.75 57.26,-242.59 54.8,-234.12 53.3,-226.11"/>
<polygon fill="green" stroke="green" points="56.79,-225.8 51.92,-216.4 49.86,-226.79 56.79,-225.8"/>
<text text-anchor="middle" x="95.38" y="-236.45" font-family="Times,serif" font-size="14.00">x₃,¬x₈,x₁₂</text>
</g>
<!-- x₇ -->
<g id="node7" class="node">
<title>x₇</title>
<ellipse fill="none" stroke="black" cx="157" cy="-107.25" rx="27" ry="18"/>
<text text-anchor="middle" x="157" y="-102.58" font-family="Times,serif" font-size="14.00">x₇</text>
<text text-anchor="middle" x="125.5" y="-129.2" font-family="Times,serif" font-size="14.00">4</text>
</g>
<!-- x₃&#45;&gt;x₇ -->
<g id="edge5" class="edge">
<title>x₃&#45;&gt;x₇</title>
<path fill="none" stroke="black" stroke-width="5" d="M136.18,-268.34C157.62,-256.68 182.7,-238.78 195,-214.5 210.75,-183.39 186.23,-144.17 169.82,-123.17"/>
<polygon fill="black" stroke="black" stroke-width="5" points="134.33,-264.37 127.36,-272.77 138.26,-272.19 134.33,-264.37"/>
<text text-anchor="middle" x="234.5" y="-191.82" font-family="Times,serif" font-size="14.00">backjump</text>
</g>
<!-- x₂&#45;&gt;x₃f -->
<g id="edge6" class="edge">
<title>x₂&#45;&gt;x₃f</title>
</g>
<!-- x₂&#45;&gt;x₂t -->
<g id="edge8" class="edge">
<title>x₂&#45;&gt;x₂t</title>
<path fill="none" stroke="green" stroke-dasharray="5,2" d="M51,-178.26C51,-166.43 51,-150.45 51,-136.75"/>
<polygon fill="green" stroke="green" points="54.5,-136.97 51,-126.97 47.5,-136.97 54.5,-136.97"/>
</g>
<!-- x₂&#45;&gt;x₇ -->
<g id="edge7" class="edge">
<title>x₂&#45;&gt;x₇</title>
<path fill="none" stroke="red" d="M67.56,-181.87C84.75,-167.72 111.86,-145.41 131.73,-129.05"/>
<polygon fill="red" stroke="red" points="133.89,-131.81 139.39,-122.75 129.44,-126.4 133.89,-131.81"/>
<text text-anchor="middle" x="138.38" y="-147.2" font-family="Times,serif" font-size="14.00">¬x₂,x₁₁</text>
</g>
<!-- c -->
<g id="node8" class="node">
<title>c</title>
<polygon fill="red" stroke="red" points="144,-36 90,-36 90,0 144,0 144,-36"/>
</g>
<!-- x₇&#45;&gt;c -->
<g id="edge9" class="edge">
<title>x₇&#45;&gt;c</title>
<path fill="none" stroke="green" d="M149.48,-89.84C143.89,-77.64 136.13,-60.73 129.6,-46.48"/>
<polygon fill="green" stroke="green" points="132.88,-45.24 125.53,-37.61 126.52,-48.16 132.88,-45.24"/>
<text text-anchor="middle" x="156.75" y="-57.95" font-family="Times,serif" font-size="14.00">x₇,x₉</text>
</g>
<!-- x₇f -->
<g id="node9" class="node">
<title>x₇f</title>
</g>
<!-- x₇&#45;&gt;x₇f -->
<g id="edge10" class="edge">
<title>x₇&#45;&gt;x₇f</title>
<path fill="none" stroke="red" stroke-dasharray="5,2" d="M166.89,-90.15C170.3,-84.3 174,-77.57 177,-71.25 180.67,-63.49 184.19,-54.87 187.23,-46.89"/>
<polygon fill="red" stroke="red" points="190.47,-48.23 190.64,-37.64 183.9,-45.81 190.47,-48.23"/>
</g>
</g>
</svg>
