<?xml version="1.0" encoding="UTF-8" standalone="no"?>
<!DOCTYPE svg PUBLIC "-//W3C//DTD SVG 1.1//EN"
 "http://www.w3.org/Graphics/SVG/1.1/DTD/svg11.dtd">
<!-- Generated by graphviz version 10.0.1 (0)
 -->
<!-- Pages: 1 -->
<svg width="281pt" height="418pt"
 viewBox="0.00 0.00 281.00 418.25" xmlns="http://www.w3.org/2000/svg" xmlns:xlink="http://www.w3.org/1999/xlink">
<g id="graph0" class="graph" transform="scale(1 1) rotate(0) translate(4 414.25)">
<!-- at -->
<g id="node1" class="node">
<title>at</title>
</g>
<!-- cf -->
<g id="node2" class="node">
<title>cf</title>
</g>
<!-- bt -->
<g id="node3" class="node">
<title>bt</title>
</g>
<!-- a -->
<g id="node4" class="node">
<title>a</title>
<ellipse fill="none" stroke="black" cx="43" cy="-375" rx="27" ry="18"/>
<text text-anchor="middle" x="43" y="-370.32" font-family="Times,serif" font-size="14.00">a</text>
<text text-anchor="middle" x="11.5" y="-396.95" font-family="Times,serif" font-size="14.00">1</text>
</g>
<!-- a&#45;&gt;at -->
<g id="edge1" class="edge">
<title>a&#45;&gt;at</title>
<path fill="none" stroke="green" stroke-dasharray="5,2" d="M39.84,-356.76C37.67,-344.93 34.74,-328.95 32.23,-315.25"/>
<polygon fill="green" stroke="green" points="35.67,-314.65 30.43,-305.44 28.79,-315.91 35.67,-314.65"/>
</g>
<!-- c -->
<g id="node5" class="node">
<title>c</title>
<ellipse fill="none" stroke="black" cx="99" cy="-285.75" rx="27" ry="18"/>
<text text-anchor="middle" x="99" y="-281.07" font-family="Times,serif" font-size="14.00">c</text>
<text text-anchor="middle" x="67.5" y="-307.7" font-family="Times,serif" font-size="14.00">2</text>
</g>
<!-- a&#45;&gt;c -->
<g id="edge2" class="edge">
<title>a&#45;&gt;c</title>
<path fill="none" stroke="red" d="M53.27,-358C61.48,-345.21 73.14,-327.03 82.64,-312.24"/>
<polygon fill="red" stroke="red" points="85.52,-314.23 87.98,-303.93 79.63,-310.45 85.52,-314.23"/>
<text text-anchor="middle" x="93.88" y="-325.7" font-family="Times,serif" font-size="14.00">¬a,d</text>
</g>
<!-- c&#45;&gt;cf -->
<g id="edge4" class="edge">
<title>c&#45;&gt;cf</title>
<path fill="none" stroke="red" stroke-dasharray="5,2" d="M109.09,-268.75C117.05,-256.12 128.32,-238.24 137.58,-223.55"/>
<polygon fill="red" stroke="red" points="140.42,-225.6 142.8,-215.27 134.5,-221.87 140.42,-225.6"/>
</g>
<!-- b -->
<g id="node6" class="node">
<title>b</title>
<ellipse fill="none" stroke="black" cx="55" cy="-196.5" rx="27" ry="18"/>
<text text-anchor="middle" x="55" y="-191.82" font-family="Times,serif" font-size="14.00">b</text>
<text text-anchor="middle" x="23.5" y="-218.45" font-family="Times,serif" font-size="14.00">3</text>
</g>
<!-- c&#45;&gt;b -->
<g id="edge3" class="edge">
<title>c&#45;&gt;b</title>
<path fill="none" stroke="green" d="M89.63,-268.5C86.34,-262.64 82.67,-255.94 79.5,-249.75 75.31,-241.57 70.97,-232.53 67.14,-224.31"/>
<polygon fill="green" stroke="green" points="70.43,-223.11 63.07,-215.49 64.08,-226.04 70.43,-223.11"/>
<text text-anchor="middle" x="98.75" y="-236.45" font-family="Times,serif" font-size="14.00">c,¬f,j</text>
</g>
<!-- e -->
<g id="node7" class="node">
<title>e</title>
<ellipse fill="none" stroke="black" cx="165" cy="-107.25" rx="27" ry="18"/>
<text text-anchor="middle" x="165" y="-102.58" font-family="Times,serif" font-size="14.00">e</text>
<text text-anchor="middle" x="133.5" y="-129.2" font-family="Times,serif" font-size="14.00">4</text>
</g>
<!-- c&#45;&gt;e -->
<g id="edge5" class="edge">
<title>c&#45;&gt;e</title>
<path fill="none" stroke="black" stroke-width="5" d="M136.61,-269.25C159.15,-257.76 185.9,-239.71 199,-214.5 214.81,-184.08 192.5,-144.93 177.23,-123.67"/>
<polygon fill="black" stroke="black" stroke-width="5" points="135.07,-265.14 127.89,-273.36 138.8,-273.06 135.07,-265.14"/>
<text text-anchor="middle" x="238.5" y="-191.82" font-family="Times,serif" font-size="14.00">backjump</text>
</g>
<!-- b&#45;&gt;cf -->
<g id="edge6" class="edge">
<title>b&#45;&gt;cf</title>
</g>
<!-- b&#45;&gt;bt -->
<g id="edge8" class="edge">
<title>b&#45;&gt;bt</title>
<path fill="none" stroke="green" stroke-dasharray="5,2" d="M55,-178.26C55,-166.43 55,-150.45 55,-136.75"/>
<polygon fill="green" stroke="green" points="58.5,-136.97 55,-126.97 51.5,-136.97 58.5,-136.97"/>
</g>
<!-- b&#45;&gt;e -->
<g id="edge7" class="edge">
<title>b&#45;&gt;e</title>
<path fill="none" stroke="red" d="M71.71,-182.25C89.64,-168.03 118.34,-145.26 139.18,-128.73"/>
<polygon fill="red" stroke="red" points="141.29,-131.52 146.95,-122.57 136.94,-126.04 141.29,-131.52"/>
<text text-anchor="middle" x="135" y="-147.2" font-family="Times,serif" font-size="14.00">¬b,i</text>
</g>
<!-- x -->
<g id="node8" class="node">
<title>x</title>
<polygon fill="blue" stroke="blue" points="152,-36 98,-36 98,0 152,0 152,-36"/>
</g>
<!-- e&#45;&gt;x -->
<g id="edge9" class="edge">
<title>e&#45;&gt;x</title>
<path fill="none" stroke="green" d="M157.48,-89.84C151.89,-77.64 144.13,-60.73 137.6,-46.48"/>
<polygon fill="green" stroke="green" points="140.88,-45.24 133.53,-37.61 134.52,-48.16 140.88,-45.24"/>
<text text-anchor="middle" x="158.88" y="-57.95" font-family="Times,serif" font-size="14.00">e,g</text>
</g>
<!-- ef -->
<g id="node9" class="node">
<title>ef</title>
</g>
<!-- e&#45;&gt;ef -->
<g id="edge10" class="edge">
<title>e&#45;&gt;ef</title>
<path fill="none" stroke="red" stroke-dasharray="5,2" d="M172.52,-89.84C178.15,-77.57 185.97,-60.51 192.53,-46.21"/>
<polygon fill="red" stroke="red" points="195.62,-47.86 196.61,-37.31 189.26,-44.94 195.62,-47.86"/>
</g>
</g>
</svg>
