<?xml version="1.0" encoding="UTF-8" standalone="no"?>
<!DOCTYPE svg PUBLIC "-//W3C//DTD SVG 1.1//EN"
 "http://www.w3.org/Graphics/SVG/1.1/DTD/svg11.dtd">
<!-- Generated by graphviz version 10.0.1 (0)
 -->
<!-- Pages: 1 -->
<svg width="189pt" height="418pt"
 viewBox="0.00 0.00 189.42 418.25" xmlns="http://www.w3.org/2000/svg" xmlns:xlink="http://www.w3.org/1999/xlink">
<g id="graph0" class="graph" transform="scale(1 1) rotate(0) translate(4 414.25)">
<!-- at -->
<g id="node1" class="node">
<title>at</title>
</g>
<!-- cf -->
<g id="node2" class="node">
<title>cf</title>
</g>
<!-- bt -->
<g id="node3" class="node">
<title>bt</title>
</g>
<!-- a -->
<g id="node4" class="node">
<title>a</title>
<ellipse fill="none" stroke="black" cx="43" cy="-375" rx="27" ry="18"/>
<text text-anchor="middle" x="43" y="-370.32" font-family="Times,serif" font-size="14.00">a</text>
<text text-anchor="middle" x="11.5" y="-396.95" font-family="Times,serif" font-size="14.00">1</text>
</g>
<!-- a&#45;&gt;at -->
<g id="edge1" class="edge">
<title>a&#45;&gt;at</title>
<path fill="none" stroke="green" stroke-dasharray="5,2" d="M39.84,-356.76C37.67,-344.93 34.74,-328.95 32.23,-315.25"/>
<polygon fill="green" stroke="green" points="35.67,-314.65 30.43,-305.44 28.79,-315.91 35.67,-314.65"/>
</g>
<!-- c -->
<g id="node5" class="node">
<title>c</title>
<ellipse fill="none" stroke="black" cx="99" cy="-285.75" rx="27" ry="18"/>
<text text-anchor="middle" x="99" y="-281.07" font-family="Times,serif" font-size="14.00">c</text>
<text text-anchor="middle" x="67.5" y="-307.7" font-family="Times,serif" font-size="14.00">2</text>
</g>
<!-- a&#45;&gt;c -->
<g id="edge2" class="edge">
<title>a&#45;&gt;c</title>
<path fill="none" stroke="red" d="M53.27,-358C61.48,-345.21 73.14,-327.03 82.64,-312.24"/>
<polygon fill="red" stroke="red" points="85.52,-314.23 87.98,-303.93 79.63,-310.45 85.52,-314.23"/>
<text text-anchor="middle" x="93.88" y="-325.7" font-family="Times,serif" font-size="14.00">¬a,d</text>
</g>
<!-- c&#45;&gt;cf -->
<g id="edge4" class="edge">
<title>c&#45;&gt;cf</title>
<path fill="none" stroke="red" stroke-dasharray="5,2" d="M106.71,-268.34C112.52,-255.99 120.6,-238.79 127.34,-224.43"/>
<polygon fill="red" stroke="red" points="130.45,-226.04 131.54,-215.5 124.12,-223.07 130.45,-226.04"/>
</g>
<!-- b -->
<g id="node6" class="node">
<title>b</title>
<ellipse fill="none" stroke="black" cx="50" cy="-196.5" rx="27" ry="18"/>
<text text-anchor="middle" x="50" y="-191.82" font-family="Times,serif" font-size="14.00">b</text>
<text text-anchor="middle" x="18.5" y="-218.45" font-family="Times,serif" font-size="14.00">3</text>
</g>
<!-- c&#45;&gt;b -->
<g id="edge3" class="edge">
<title>c&#45;&gt;b</title>
<path fill="none" stroke="green" d="M87.18,-269.1C82.95,-263.18 78.29,-256.3 74.5,-249.75 69.89,-241.79 65.44,-232.82 61.62,-224.59"/>
<polygon fill="green" stroke="green" points="64.93,-223.41 57.63,-215.72 58.55,-226.28 64.93,-223.41"/>
<text text-anchor="middle" x="93.75" y="-236.45" font-family="Times,serif" font-size="14.00">c,¬f,j</text>
</g>
<!-- b&#45;&gt;cf -->
<g id="edge5" class="edge">
<title>b&#45;&gt;cf</title>
</g>
<!-- b&#45;&gt;bt -->
<g id="edge7" class="edge">
<title>b&#45;&gt;bt</title>
<path fill="none" stroke="green" stroke-dasharray="5,2" d="M46.84,-178.26C44.67,-166.43 41.74,-150.45 39.23,-136.75"/>
<polygon fill="green" stroke="green" points="42.67,-136.15 37.43,-126.94 35.79,-137.41 42.67,-136.15"/>
</g>
<!-- e -->
<g id="node7" class="node">
<title>e</title>
</g>
<!-- b&#45;&gt;e -->
<g id="edge6" class="edge">
<title>b&#45;&gt;e</title>
<path fill="none" stroke="red" d="M60.27,-179.5C68.48,-166.71 80.14,-148.53 89.64,-133.74"/>
<polygon fill="red" stroke="red" points="92.52,-135.73 94.98,-125.43 86.63,-131.95 92.52,-135.73"/>
<text text-anchor="middle" x="99" y="-147.2" font-family="Times,serif" font-size="14.00">¬b,i</text>
</g>
<!-- x -->
<g id="node8" class="node">
<title>x</title>
</g>
<!-- e&#45;&gt;x -->
<g id="edge8" class="edge">
<title>e&#45;&gt;x</title>
</g>
<!-- ef -->
<g id="node9" class="node">
<title>ef</title>
</g>
<!-- e&#45;&gt;ef -->
<g id="edge9" class="edge">
<title>e&#45;&gt;ef</title>
</g>
</g>
</svg>
