<?xml version="1.0" encoding="UTF-8" standalone="no"?>
<!DOCTYPE svg PUBLIC "-//W3C//DTD SVG 1.1//EN"
 "http://www.w3.org/Graphics/SVG/1.1/DTD/svg11.dtd">
<!-- Generated by graphviz version 10.0.1 (0)
 -->
<!-- Pages: 1 -->
<svg width="192pt" height="418pt"
 viewBox="0.00 0.00 192.42 418.25" xmlns="http://www.w3.org/2000/svg" xmlns:xlink="http://www.w3.org/1999/xlink">
<g id="graph0" class="graph" transform="scale(1 1) rotate(0) translate(4 414.25)">
<!-- x₁t -->
<g id="node1" class="node">
<title>x₁t</title>
</g>
<!-- x₃f -->
<g id="node2" class="node">
<title>x₃f</title>
</g>
<!-- x₂t -->
<g id="node3" class="node">
<title>x₂t</title>
</g>
<!-- x₁ -->
<g id="node4" class="node">
<title>x₁</title>
<ellipse fill="none" stroke="black" cx="43" cy="-375" rx="27" ry="18"/>
<text text-anchor="middle" x="43" y="-370.32" font-family="Times,serif" font-size="14.00">x₁</text>
<text text-anchor="middle" x="11.5" y="-396.95" font-family="Times,serif" font-size="14.00">1</text>
</g>
<!-- x₁&#45;&gt;x₁t -->
<g id="edge1" class="edge">
<title>x₁&#45;&gt;x₁t</title>
<path fill="none" stroke="green" stroke-dasharray="5,2" d="M39.84,-356.76C37.67,-344.93 34.74,-328.95 32.23,-315.25"/>
<polygon fill="green" stroke="green" points="35.67,-314.65 30.43,-305.44 28.79,-315.91 35.67,-314.65"/>
</g>
<!-- x₃ -->
<g id="node5" class="node">
<title>x₃</title>
<ellipse fill="none" stroke="black" cx="99" cy="-285.75" rx="27" ry="18"/>
<text text-anchor="middle" x="99" y="-281.07" font-family="Times,serif" font-size="14.00">x₃</text>
<text text-anchor="middle" x="67.5" y="-307.7" font-family="Times,serif" font-size="14.00">2</text>
</g>
<!-- x₁&#45;&gt;x₃ -->
<g id="edge2" class="edge">
<title>x₁&#45;&gt;x₃</title>
<path fill="none" stroke="red" d="M53.27,-358C61.48,-345.21 73.14,-327.03 82.64,-312.24"/>
<polygon fill="red" stroke="red" points="85.52,-314.23 87.98,-303.93 79.63,-310.45 85.52,-314.23"/>
<text text-anchor="middle" x="98.75" y="-325.7" font-family="Times,serif" font-size="14.00">¬x₁,x₄</text>
</g>
<!-- x₃&#45;&gt;x₃f -->
<g id="edge4" class="edge">
<title>x₃&#45;&gt;x₃f</title>
<path fill="none" stroke="red" stroke-dasharray="5,2" d="M112.89,-269.95C117.89,-264.02 123.22,-256.91 127,-249.75 130.98,-242.22 134.13,-233.56 136.55,-225.47"/>
<polygon fill="red" stroke="red" points="139.86,-226.64 139.1,-216.07 133.1,-224.81 139.86,-226.64"/>
</g>
<!-- x₂ -->
<g id="node6" class="node">
<title>x₂</title>
<ellipse fill="none" stroke="black" cx="53" cy="-196.5" rx="27" ry="18"/>
<text text-anchor="middle" x="53" y="-191.82" font-family="Times,serif" font-size="14.00">x₂</text>
<text text-anchor="middle" x="21.5" y="-218.45" font-family="Times,serif" font-size="14.00">3</text>
</g>
<!-- x₃&#45;&gt;x₂ -->
<g id="edge3" class="edge">
<title>x₃&#45;&gt;x₂</title>
<path fill="none" stroke="green" d="M78.73,-273.37C70.26,-267.49 61.24,-259.48 56.25,-249.75 52.62,-242.66 51.09,-234.3 50.66,-226.37"/>
<polygon fill="green" stroke="green" points="54.16,-226.41 50.69,-216.4 47.16,-226.39 54.16,-226.41"/>
<text text-anchor="middle" x="90.38" y="-236.45" font-family="Times,serif" font-size="14.00">x₃,¬x₈,x₁₂</text>
</g>
<!-- x₂&#45;&gt;x₃f -->
<g id="edge5" class="edge">
<title>x₂&#45;&gt;x₃f</title>
</g>
<!-- x₂&#45;&gt;x₂t -->
<g id="edge7" class="edge">
<title>x₂&#45;&gt;x₂t</title>
<path fill="none" stroke="green" stroke-dasharray="5,2" d="M49.84,-178.26C47.67,-166.43 44.74,-150.45 42.23,-136.75"/>
<polygon fill="green" stroke="green" points="45.67,-136.15 40.43,-126.94 38.79,-137.41 45.67,-136.15"/>
</g>
<!-- x₇ -->
<g id="node7" class="node">
<title>x₇</title>
<ellipse fill="none" stroke="black" cx="109" cy="-107.25" rx="27" ry="18"/>
<text text-anchor="middle" x="109" y="-102.58" font-family="Times,serif" font-size="14.00">x₇</text>
<text text-anchor="middle" x="77.5" y="-129.2" font-family="Times,serif" font-size="14.00">4</text>
</g>
<!-- x₂&#45;&gt;x₇ -->
<g id="edge6" class="edge">
<title>x₂&#45;&gt;x₇</title>
<path fill="none" stroke="red" d="M63.27,-179.5C71.48,-166.71 83.14,-148.53 92.64,-133.74"/>
<polygon fill="red" stroke="red" points="95.52,-135.73 97.98,-125.43 89.63,-131.95 95.52,-135.73"/>
<text text-anchor="middle" x="111.38" y="-147.2" font-family="Times,serif" font-size="14.00">¬x₂,x₁₁</text>
</g>
<!-- c -->
<g id="node8" class="node">
<title>c</title>
<polygon fill="blue" stroke="blue" points="96,-36 42,-36 42,0 96,0 96,-36"/>
</g>
<!-- x₇&#45;&gt;c -->
<g id="edge8" class="edge">
<title>x₇&#45;&gt;c</title>
<path fill="none" stroke="green" d="M101.48,-89.84C95.89,-77.64 88.13,-60.73 81.6,-46.48"/>
<polygon fill="green" stroke="green" points="84.88,-45.24 77.53,-37.61 78.52,-48.16 84.88,-45.24"/>
<text text-anchor="middle" x="108.75" y="-57.95" font-family="Times,serif" font-size="14.00">x₇,x₉</text>
</g>
<!-- x₇f -->
<g id="node9" class="node">
<title>x₇f</title>
</g>
<!-- x₇&#45;&gt;x₇f -->
<g id="edge9" class="edge">
<title>x₇&#45;&gt;x₇f</title>
<path fill="none" stroke="red" stroke-dasharray="5,2" d="M118.29,-90.07C121.51,-84.22 125.06,-77.51 128,-71.25 131.68,-63.43 135.32,-54.79 138.51,-46.82"/>
<polygon fill="red" stroke="red" points="141.75,-48.15 142.13,-37.56 135.23,-45.6 141.75,-48.15"/>
</g>
</g>
</svg>
