<?xml version="1.0" encoding="UTF-8" standalone="no"?>
<!DOCTYPE svg PUBLIC "-//W3C//DTD SVG 1.1//EN"
 "http://www.w3.org/Graphics/SVG/1.1/DTD/svg11.dtd">
<!-- Generated by graphviz version 10.0.1 (0)
 -->
<!-- Pages: 1 -->
<svg width="188pt" height="329pt"
 viewBox="0.00 0.00 188.00 329.00" xmlns="http://www.w3.org/2000/svg" xmlns:xlink="http://www.w3.org/1999/xlink">
<g id="graph0" class="graph" transform="scale(1 1) rotate(0) translate(4 325)">
<!-- at -->
<g id="node1" class="node">
<title>at</title>
</g>
<!-- cf -->
<g id="node2" class="node">
<title>cf</title>
</g>
<!-- bt -->
<g id="node3" class="node">
<title>bt</title>
</g>
<!-- a -->
<g id="node4" class="node">
<title>a</title>
<ellipse fill="none" stroke="black" cx="56" cy="-285.75" rx="27" ry="18"/>
<text text-anchor="middle" x="56" y="-281.07" font-family="Times,serif" font-size="14.00">a</text>
<text text-anchor="middle" x="24.5" y="-307.7" font-family="Times,serif" font-size="14.00">1</text>
</g>
<!-- a&#45;&gt;at -->
<g id="edge1" class="edge">
<title>a&#45;&gt;at</title>
<path fill="none" stroke="green" stroke-dasharray="5,2" d="M52.84,-267.51C50.67,-255.68 47.74,-239.7 45.23,-226"/>
<polygon fill="green" stroke="green" points="48.67,-225.4 43.43,-216.19 41.79,-226.66 48.67,-225.4"/>
</g>
<!-- c -->
<g id="node5" class="node">
<title>c</title>
<ellipse fill="none" stroke="black" cx="112" cy="-196.5" rx="27" ry="18"/>
<text text-anchor="middle" x="112" y="-191.82" font-family="Times,serif" font-size="14.00">c</text>
<text text-anchor="middle" x="80.5" y="-218.45" font-family="Times,serif" font-size="14.00">2</text>
</g>
<!-- a&#45;&gt;c -->
<g id="edge2" class="edge">
<title>a&#45;&gt;c</title>
<path fill="none" stroke="red" d="M66.27,-268.75C74.48,-255.96 86.14,-237.78 95.64,-222.99"/>
<polygon fill="red" stroke="red" points="98.52,-224.98 100.98,-214.68 92.63,-221.2 98.52,-224.98"/>
<text text-anchor="middle" x="106.88" y="-236.45" font-family="Times,serif" font-size="14.00">¬a,d</text>
</g>
<!-- c&#45;&gt;cf -->
<g id="edge4" class="edge">
<title>c&#45;&gt;cf</title>
<path fill="none" stroke="red" stroke-dasharray="5,2" d="M119.71,-179.09C125.52,-166.74 133.6,-149.54 140.34,-135.18"/>
<polygon fill="red" stroke="red" points="143.45,-136.79 144.54,-126.25 137.12,-133.82 143.45,-136.79"/>
</g>
<!-- b -->
<g id="node6" class="node">
<title>b</title>
<ellipse fill="none" stroke="black" cx="63" cy="-107.25" rx="27" ry="18"/>
<text text-anchor="middle" x="63" y="-102.58" font-family="Times,serif" font-size="14.00">b</text>
<text text-anchor="middle" x="31.5" y="-129.2" font-family="Times,serif" font-size="14.00">3</text>
</g>
<!-- c&#45;&gt;b -->
<g id="edge3" class="edge">
<title>c&#45;&gt;b</title>
<path fill="none" stroke="green" d="M99.86,-180.29C95.37,-174.31 90.43,-167.26 86.5,-160.5 81.97,-152.69 77.69,-143.86 74.07,-135.7"/>
<polygon fill="green" stroke="green" points="77.3,-134.37 70.15,-126.55 70.87,-137.12 77.3,-134.37"/>
<text text-anchor="middle" x="105.75" y="-147.2" font-family="Times,serif" font-size="14.00">c,¬f,j</text>
</g>
<!-- b&#45;&gt;cf -->
<g id="edge5" class="edge">
<title>b&#45;&gt;cf</title>
</g>
<!-- b&#45;&gt;bt -->
<g id="edge7" class="edge">
<title>b&#45;&gt;bt</title>
<path fill="none" stroke="green" stroke-dasharray="5,2" d="M56.06,-89.43C51.03,-77.24 44.12,-60.49 38.3,-46.38"/>
<polygon fill="green" stroke="green" points="41.55,-45.08 34.5,-37.17 35.08,-47.75 41.55,-45.08"/>
</g>
<!-- e -->
<g id="node7" class="node">
<title>e</title>
</g>
<!-- b&#45;&gt;e -->
<g id="edge6" class="edge">
<title>b&#45;&gt;e</title>
<path fill="none" stroke="red" d="M69.94,-89.43C74.97,-77.24 81.88,-60.49 87.7,-46.38"/>
<polygon fill="red" stroke="red" points="90.92,-47.75 91.5,-37.17 84.45,-45.08 90.92,-47.75"/>
<text text-anchor="middle" x="100" y="-57.95" font-family="Times,serif" font-size="14.00">¬b,i</text>
</g>
</g>
</svg>
