<?xml version="1.0" encoding="UTF-8" standalone="no"?>
<!DOCTYPE svg PUBLIC "-//W3C//DTD SVG 1.1//EN"
 "http://www.w3.org/Graphics/SVG/1.1/DTD/svg11.dtd">
<!-- Generated by graphviz version 2.40.1 (0)
 -->
<!-- Title: %3 Pages: 1 -->
<svg width="296pt" height="116pt"
 viewBox="0.00 0.00 296.00 116.00" xmlns="http://www.w3.org/2000/svg" xmlns:xlink="http://www.w3.org/1999/xlink">
<g id="graph0" class="graph" transform="scale(1 1) rotate(0) translate(4 112)">
<title>%3</title>
<polygon fill="#ffffff" stroke="transparent" points="-4,4 -4,-112 292,-112 292,4 -4,4"/>
<!-- 1 -->
<g id="node1" class="node">
<title>1</title>
<ellipse fill="none" stroke="#000000" cx="27" cy="-90" rx="27" ry="18"/>
<text text-anchor="middle" x="27" y="-86.3" font-family="Times-Roman" font-size="14.00" fill="#000000">1,1</text>
</g>
<!-- 2 -->
<g id="node2" class="node">
<title>2</title>
<ellipse fill="none" stroke="#000000" cx="27" cy="-18" rx="27" ry="18"/>
</g>
<!-- 1&#45;&gt;2 -->
<g id="edge1" class="edge">
<title>1&#45;&gt;2</title>
<path fill="none" stroke="#000000" d="M27,-71.8314C27,-64.131 27,-54.9743 27,-46.4166"/>
<polygon fill="#000000" stroke="#000000" points="30.5001,-46.4132 27,-36.4133 23.5001,-46.4133 30.5001,-46.4132"/>
</g>
<!-- 3 -->
<g id="node3" class="node">
<title>3</title>
<ellipse fill="none" stroke="#000000" cx="99" cy="-90" rx="27" ry="18"/>
</g>
<!-- 1&#45;&gt;3 -->
<g id="edge3" class="edge">
<title>1&#45;&gt;3</title>
<path fill="none" stroke="#000000" d="M64.0854,-90C66.7002,-90 69.3149,-90 71.9297,-90"/>
<polygon fill="#000000" stroke="#000000" points="64,-86.5001 54,-90 64,-93.5001 64,-86.5001"/>
</g>
<!-- 2&#45;&gt;3 -->
<g id="edge2" class="edge">
<title>2&#45;&gt;3</title>
<path fill="none" stroke="#000000" d="M42.2473,-33.2473C52.1703,-43.1703 65.2877,-56.2877 76.4117,-67.4117"/>
<polygon fill="#000000" stroke="#000000" points="74.1847,-70.1344 83.7307,-74.7307 79.1344,-65.1847 74.1847,-70.1344"/>
</g>
<!-- 4 -->
<g id="node4" class="node">
<title>4</title>
<ellipse fill="none" stroke="#000000" cx="99" cy="-18" rx="27" ry="18"/>
</g>
<!-- 2&#45;&gt;4 -->
<g id="edge4" class="edge">
<title>2&#45;&gt;4</title>
<path fill="none" stroke="#000000" d="M64.0854,-18C66.7002,-18 69.3149,-18 71.9297,-18"/>
<polygon fill="#000000" stroke="#000000" points="64,-14.5001 54,-18 64,-21.5001 64,-14.5001"/>
</g>
<!-- 6 -->
<g id="node6" class="node">
<title>6</title>
<ellipse fill="none" stroke="#000000" cx="171" cy="-90" rx="27" ry="18"/>
</g>
<!-- 3&#45;&gt;6 -->
<g id="edge9" class="edge">
<title>3&#45;&gt;6</title>
<path fill="none" stroke="#000000" d="M136.0854,-90C138.7002,-90 141.3149,-90 143.9297,-90"/>
<polygon fill="#000000" stroke="#000000" points="136,-86.5001 126,-90 136,-93.5001 136,-86.5001"/>
</g>
<!-- 4&#45;&gt;3 -->
<g id="edge5" class="edge">
<title>4&#45;&gt;3</title>
<path fill="none" stroke="#000000" d="M99,-36.4133C99,-44.0593 99,-53.1084 99,-61.5726"/>
<polygon fill="#000000" stroke="#000000" points="95.5001,-61.8313 99,-71.8314 102.5001,-61.8314 95.5001,-61.8313"/>
</g>
<!-- 5 -->
<g id="node5" class="node">
<title>5</title>
<ellipse fill="none" stroke="#000000" cx="171" cy="-18" rx="27" ry="18"/>
</g>
<!-- 4&#45;&gt;5 -->
<g id="edge6" class="edge">
<title>4&#45;&gt;5</title>
<path fill="none" stroke="#000000" d="M120.375,-6.728C126.7773,-4.7773 133.1796,-4.1075 139.5818,-4.7187"/>
<polygon fill="#000000" stroke="#000000" points="139.15,-8.2016 149.6426,-6.7334 140.5245,-1.3379 139.15,-8.2016"/>
</g>
<!-- 5&#45;&gt;4 -->
<g id="edge7" class="edge">
<title>5&#45;&gt;4</title>
<path fill="none" stroke="#000000" d="M149.6426,-29.2666C143.2403,-31.2197 136.838,-31.8918 130.4357,-31.283"/>
<polygon fill="#000000" stroke="#000000" points="130.8671,-27.8001 120.375,-29.272 129.495,-34.6643 130.8671,-27.8001"/>
</g>
<!-- 5&#45;&gt;6 -->
<g id="edge8" class="edge">
<title>5&#45;&gt;6</title>
<path fill="none" stroke="#000000" d="M171,-36.4133C171,-44.0593 171,-53.1084 171,-61.5726"/>
<polygon fill="#000000" stroke="#000000" points="167.5001,-61.8313 171,-71.8314 174.5001,-61.8314 167.5001,-61.8313"/>
</g>
<!-- 8 -->
<g id="node8" class="node">
<title>8</title>
<ellipse fill="none" stroke="#000000" cx="243" cy="-18" rx="27" ry="18"/>
</g>
<!-- 5&#45;&gt;8 -->
<g id="edge12" class="edge">
<title>5&#45;&gt;8</title>
<path fill="none" stroke="#000000" d="M208.0854,-18C210.7002,-18 213.3149,-18 215.9297,-18"/>
<polygon fill="#000000" stroke="#000000" points="208,-14.5001 198,-18 208,-21.5001 208,-14.5001"/>
</g>
<!-- 7 -->
<g id="node7" class="node">
<title>7</title>
<ellipse fill="none" stroke="#000000" cx="243" cy="-90" rx="27" ry="18"/>
</g>
<!-- 6&#45;&gt;7 -->
<g id="edge10" class="edge">
<title>6&#45;&gt;7</title>
<path fill="none" stroke="#000000" d="M192.375,-78.728C198.7773,-76.7773 205.1796,-76.1075 211.5818,-76.7187"/>
<polygon fill="#000000" stroke="#000000" points="211.15,-80.2016 221.6426,-78.7334 212.5245,-73.3379 211.15,-80.2016"/>
</g>
<!-- 7&#45;&gt;6 -->
<g id="edge11" class="edge">
<title>7&#45;&gt;6</title>
<path fill="none" stroke="#000000" d="M221.6426,-101.2666C215.2403,-103.2197 208.838,-103.8918 202.4357,-103.283"/>
<polygon fill="#000000" stroke="#000000" points="202.8671,-99.8001 192.375,-101.272 201.495,-106.6643 202.8671,-99.8001"/>
</g>
<!-- 8&#45;&gt;7 -->
<g id="edge13" class="edge">
<title>8&#45;&gt;7</title>
<path fill="none" stroke="#000000" d="M243,-36.4133C243,-44.0593 243,-53.1084 243,-61.5726"/>
<polygon fill="#000000" stroke="#000000" points="239.5001,-61.8313 243,-71.8314 246.5001,-61.8314 239.5001,-61.8313"/>
</g>
<!-- 8&#45;&gt;8 -->
<g id="edge14" class="edge">
<title>8&#45;&gt;8</title>
<path fill="none" stroke="#000000" d="M262.895,-30.4321C275.688,-33.6753 288,-29.5313 288,-18 288,-9.6218 281.5006,-5.1433 273.0395,-4.5644"/>
<polygon fill="#000000" stroke="#000000" points="272.5019,-1.1004 262.895,-5.5679 273.191,-8.0665 272.5019,-1.1004"/>
</g>
</g>
</svg>
