<?xml version="1.0" encoding="UTF-8" standalone="no"?>
<!DOCTYPE svg PUBLIC "-//W3C//DTD SVG 1.1//EN"
 "http://www.w3.org/Graphics/SVG/1.1/DTD/svg11.dtd">
<!-- Generated by graphviz version 2.40.1 (0)
 -->
<!-- Title: %3 Pages: 1 -->
<svg width="206pt" height="188pt"
 viewBox="0.00 0.00 206.00 188.00" xmlns="http://www.w3.org/2000/svg" xmlns:xlink="http://www.w3.org/1999/xlink">
<g id="graph0" class="graph" transform="scale(1 1) rotate(0) translate(4 184)">
<title>%3</title>
<polygon fill="#ffffff" stroke="transparent" points="-4,4 -4,-184 202,-184 202,4 -4,4"/>
<!-- A -->
<g id="node1" class="node">
<title>A</title>
<ellipse fill="none" stroke="#000000" cx="63" cy="-162" rx="27" ry="18"/>
<text text-anchor="middle" x="63" y="-158.3" font-family="Times-Roman" font-size="14.00" fill="#000000">A</text>
</g>
<!-- B -->
<g id="node2" class="node">
<title>B</title>
<ellipse fill="none" stroke="#000000" cx="27" cy="-90" rx="27" ry="18"/>
<text text-anchor="middle" x="27" y="-86.3" font-family="Times-Roman" font-size="14.00" fill="#000000">B</text>
</g>
<!-- A&#45;&gt;B -->
<g id="edge1" class="edge">
<title>A&#45;&gt;B</title>
<path fill="none" stroke="#000000" d="M49.777,-135.554C45.0583,-126.1166 39.8674,-115.7348 35.6343,-107.2687"/>
<polygon fill="#000000" stroke="#000000" points="46.6827,-137.1918 54.2854,-144.5708 52.9437,-134.0613 46.6827,-137.1918"/>
</g>
<!-- C -->
<g id="node3" class="node">
<title>C</title>
<ellipse fill="none" stroke="#000000" cx="99" cy="-90" rx="27" ry="18"/>
<text text-anchor="middle" x="99" y="-86.3" font-family="Times-Roman" font-size="14.00" fill="#000000">C</text>
</g>
<!-- A&#45;&gt;C -->
<g id="edge2" class="edge">
<title>A&#45;&gt;C</title>
<path fill="none" stroke="#000000" d="M76.223,-135.554C80.9417,-126.1166 86.1326,-115.7348 90.3657,-107.2687"/>
<polygon fill="#000000" stroke="#000000" points="73.0563,-134.0613 71.7146,-144.5708 79.3173,-137.1918 73.0563,-134.0613"/>
</g>
<!-- E -->
<g id="node4" class="node">
<title>E</title>
<ellipse fill="none" stroke="#000000" cx="99" cy="-18" rx="27" ry="18"/>
<text text-anchor="middle" x="99" y="-14.3" font-family="Times-Roman" font-size="14.00" fill="#000000">E</text>
</g>
<!-- B&#45;&gt;E -->
<g id="edge3" class="edge">
<title>B&#45;&gt;E</title>
<path fill="none" stroke="#000000" d="M49.5883,-67.4117C60.7123,-56.2877 73.8297,-43.1703 83.7527,-33.2473"/>
<polygon fill="#000000" stroke="#000000" points="46.8656,-65.1847 42.2693,-74.7307 51.8153,-70.1344 46.8656,-65.1847"/>
</g>
<!-- C&#45;&gt;E -->
<g id="edge4" class="edge">
<title>C&#45;&gt;E</title>
<path fill="none" stroke="#000000" d="M99,-61.5726C99,-53.1084 99,-44.0593 99,-36.4133"/>
<polygon fill="#000000" stroke="#000000" points="95.5001,-61.8313 99,-71.8314 102.5001,-61.8314 95.5001,-61.8313"/>
</g>
<!-- D -->
<g id="node5" class="node">
<title>D</title>
<ellipse fill="none" stroke="#000000" cx="171" cy="-90" rx="27" ry="18"/>
<text text-anchor="middle" x="171" y="-86.3" font-family="Times-Roman" font-size="14.00" fill="#000000">D</text>
</g>
<!-- C&#45;&gt;D -->
<g id="edge5" class="edge">
<title>C&#45;&gt;D</title>
<path fill="none" stroke="#000000" d="M126,-90C128.6147,-90 131.2295,-90 133.8442,-90"/>
<polygon fill="#000000" stroke="#000000" points="133.9297,-93.5001 143.9297,-90 133.9297,-86.5001 133.9297,-93.5001"/>
</g>
<!-- D&#45;&gt;E -->
<g id="edge6" class="edge">
<title>D&#45;&gt;E</title>
<path fill="none" stroke="#000000" d="M148.4117,-67.4117C137.2877,-56.2877 124.1703,-43.1703 114.2473,-33.2473"/>
<polygon fill="#000000" stroke="#000000" points="146.1847,-70.1344 155.7307,-74.7307 151.1344,-65.1847 146.1847,-70.1344"/>
</g>
</g>
</svg>
